<svg width="1024" height="1024" viewBox="0 0 1024 1024" fill="none" xmlns="http://www.w3.org/2000/svg">
<path d="M685 97.4C669 102 654.5 113.2 637 134.6C619.3 156.1 600.5 192.3 586.2 232.5C580.9 247.3 571 281.9 566.6 300.5C561.4 322.7 557.4 356 556.3 386.3C556 396.1 555.4 404.3 555.1 404.5C554.7 404.7 551.3 404.3 547.5 403.5C521.7 398.6 476.4 399.3 452 404.9C443.5 406.9 444 407.5 444 393.5C444 382.9 441.3 349.4 439.4 337C439.2 335.1 438.5 330.1 437.9 326C436.7 317.5 430.7 284 428.5 273.5C427.7 269.7 427 265.2 427 263.6C427 256.3 413.1 212.6 404.1 191.5C385.5 148.4 361.9 119.1 334.4 105.1C326 100.9 320.3 99.7 310.2 100.2C298.4 100.7 290.2 104.5 281.6 113.3C268.4 126.9 262.8 142.3 259.9 172C258.6 186 258.9 193.7 261.9 218.9C267.5 266.2 277.9 300.5 301.8 350.5C307.3 362 316.1 380.7 321.4 392C326.7 403.3 334.9 419.6 339.5 428.2C344.2 436.8 348 444.5 348 445.2C348 446 345 449.5 341.4 453C329.4 464.9 314.3 489.7 305.1 512.7C292.2 545.1 282 577.2 276 604.1C266.3 647.9 268.5 696.4 281.7 729.5C289 747.7 297.5 760.4 313.5 776.9C332 795.9 348.5 808 370.4 818.6C399.2 832.4 441 843.7 477.2 847.5C493.8 849.2 524.2 849.5 535.2 848C539.2 847.5 547 846.6 552.5 846C572.3 843.7 604.8 835.6 622.5 828.5C682.7 804.2 717.2 767.7 735 709.7C737.5 701.5 739.2 680.3 738.7 662.2C737.5 611.3 716.6 537.1 690.8 492C681.5 475.7 671.6 463.6 658.8 453C653.8 448.7 653.3 448 654.5 446.4C657.8 441.5 673.7 410.6 681.1 394.5C697.5 358.6 722.4 297.7 729.3 276.5C739 246.8 744.7 220.1 747.2 192.3C749.8 163.9 744.5 137.8 732.5 119C721.8 102.3 713.5 96.8 698.5 96.3C693.2 96.2 687.6 96.6 685 97.4ZM706 111C714.2 113.2 721.5 122.8 727.6 139.6C734.4 158.4 735.4 170.9 732.5 198.2C728.3 238.1 714.4 283.2 683 359C674.2 380.3 663.3 403.2 650.6 426.9C642.5 442 641 445.5 641 449.4C641 453.7 641.3 454.1 646.3 457.8C667 473.2 687.6 507.4 702.6 551.5C720.1 602.8 728.1 644 726.6 676.3C725.9 694.2 723.8 704.6 717.9 719.7C699.1 768.1 661.9 801.7 605.2 821.4C586.1 828 571.2 831.5 546 835.2C536.7 836.6 488.8 837 475.5 835.8C454.9 833.9 433.6 829.2 410 821.1C390 814.3 383.4 811.7 373 806.5C355.1 797.5 342.7 788.6 327.1 773.5C313.4 760.2 303.4 746.8 296 731.7C286 711.2 283.2 697.5 282.3 665.5C281.8 648.8 282.1 641.8 283.4 631.5C288.3 594.9 310.3 528.1 328.7 494C337.4 478 347.3 463.8 353.9 457.9C359.8 452.7 360.3 451.9 360.7 447.4C361.2 442.7 360.6 441.2 345.2 411C322.8 366.8 304.1 325.4 295.2 299.7C287.2 277 278.5 244.3 276.1 228C275.5 223.9 274.4 216.2 273.5 210.9C269.8 187.4 271.2 164.7 277.4 145.3C282.9 128.6 288.6 120.8 300 115C321.1 104.2 351.2 124.7 376.4 167C403.7 212.8 422.5 286 429.4 373.5C429.7 376.2 429.9 386.6 429.9 396.5L430 414.6L432.8 417.9L435.5 421.2L443 419.1C447.1 417.9 454.8 416.3 460 415.5C465.2 414.7 471.1 413.8 473 413.4C474.9 413.1 486.2 412.6 498.2 412.3C521.2 411.8 536.8 413.1 555.5 417.1C560.4 418.1 564.8 419 565.2 419C566.9 419 567.9 413.8 568.5 401.8C570.7 355.8 575.5 322.6 586 281.5C596.1 241.8 607.2 210.9 620.9 184.5C633.4 160.4 642.1 147.8 656.9 132.7C669.2 120 680.1 113 691.4 110.5C697.4 109.1 699 109.2 706 111Z" fill="white"/>
<path d="M372.15 529.7C369.15 530.3 366.95 533 366.15 536.9C365.55 539.9 366.15 540.7 379.65 554.3L393.75 568.6L381.15 581C374.25 587.9 367.95 594.8 367.15 596.3C365.35 599.7 366.05 602.3 369.45 605C374.55 609 376.45 608.1 391.35 593.6L405.25 580.3L419.45 593.6C435.25 608.5 436.75 609.2 441.85 604.1C446.75 599.1 446.15 597.9 430.75 582.5L416.65 568.4L430.15 554.8C437.55 547.3 443.85 540.2 444.25 539C444.65 537.7 444.15 535.7 443.05 533.7C441.45 530.9 440.55 530.5 436.75 530.3L432.25 530L418.55 543.4L404.85 556.8L392.55 544.3C382.15 533.8 375.95 528.5 374.55 529.1C374.35 529.2 373.25 529.5 372.15 529.7ZM618.05 543.2L603.65 557.5L590.05 543.7C577.45 531.1 576.05 530 572.75 530C568.75 530 565.45 532.7 564.45 536.8C563.75 539.6 566.35 542.7 581.45 557.6L592.65 568.6L578.65 582.6C566.55 594.6 564.75 596.9 564.75 599.7C564.75 605.1 572.05 608.9 576.75 606C577.55 605.5 583.95 599.4 590.95 592.3L603.75 579.5L616.45 592.1C629.55 605.1 632.05 607 635.75 607C638.95 607 642.75 602.6 642.75 598.9C642.75 596.1 640.95 593.9 628.95 581.8L615.15 568.1L628.95 554.7C643.35 540.8 644.45 539 641.75 533.9C640.65 532 635.85 529 633.65 529C632.95 529 625.95 535.4 618.05 543.2Z" fill="white"/>
<path d="M566 679.5C566 675.101 564.409 670.745 561.319 666.68C558.228 662.616 553.698 658.923 547.987 655.812C542.276 652.701 535.497 650.234 528.035 648.55C520.574 646.867 512.576 646 504.5 646C496.424 646 488.426 646.867 480.965 648.55C473.503 650.234 466.724 652.701 461.013 655.812C455.302 658.923 450.772 662.616 447.681 666.68C444.591 670.745 443 675.101 443 679.5L504.5 679.5H566Z" fill="white"/>
</svg>
